<svg width="943" height="335" viewBox="0 0 943 335" fill="none" xmlns="http://www.w3.org/2000/svg">
<rect width="943" height="335" rx="20" fill="#FFFAFA"/>
<mask id="mask0_282_429" style="mask-type:alpha" maskUnits="userSpaceOnUse" x="0" y="0" width="943" height="335">
<rect width="943" height="335" rx="20" fill="#FFFAFA"/>
</mask>
<g mask="url(#mask0_282_429)">
<g opacity="0.5" filter="url(#filter0_f_282_429)">
<ellipse cx="231.638" cy="324.5" rx="175.716" ry="281.5" fill="#D2FFF7"/>
</g>
<g opacity="0.5" filter="url(#filter1_f_282_429)">
<ellipse cx="654.891" cy="567.5" rx="162.01" ry="289.5" fill="#FFD5E9"/>
</g>
<ellipse cx="270.839" cy="209" rx="30.7023" ry="56" fill="#BEF3EA"/>
<path d="M-240.337 229.401C-245.432 302.174 -218.059 410.539 -67.8027 261.813C120.018 75.9063 200.818 260.362 206.978 506.56C211.906 703.519 262.656 671.448 287.415 630.793" stroke="white" stroke-width="4"/>
<path d="M757.814 592.521C742.741 555.896 719.037 470.232 744.809 420.574C777.022 358.502 930.17 343.109 855.353 27.7937" stroke="white" stroke-width="3"/>
</g>
<path d="M378.065 176.55C378.032 177.817 377.682 179.067 377.015 180.3C376.365 181.517 375.432 182.625 374.215 183.625C373.015 184.625 371.574 185.417 369.89 186C368.207 186.6 366.307 186.9 364.19 186.9C360.64 186.9 357.574 186.133 354.99 184.6C352.424 183.05 350.44 180.917 349.04 178.2C347.64 175.467 346.94 172.325 346.94 168.775C346.94 166.075 347.357 163.6 348.19 161.35C349.024 159.083 350.199 157.117 351.715 155.45C353.232 153.767 355.015 152.467 357.065 151.55C359.115 150.633 361.349 150.175 363.765 150.175C365.415 150.175 366.765 150.342 367.815 150.675C368.882 151.008 369.715 151.342 370.315 151.675C370.915 152.008 371.357 152.175 371.64 152.175C372.024 152.175 372.34 152.025 372.59 151.725C372.84 151.425 373.09 151.125 373.34 150.825C373.607 150.525 373.915 150.375 374.265 150.375C374.515 150.375 374.724 150.458 374.89 150.625C375.057 150.775 375.199 151.042 375.315 151.425L377.915 160.325C378.015 160.658 377.982 160.95 377.815 161.2C377.665 161.45 377.424 161.608 377.09 161.675C376.757 161.742 376.457 161.708 376.19 161.575C375.924 161.442 375.715 161.2 375.565 160.85C374.665 158.783 373.665 157.142 372.565 155.925C371.465 154.692 370.274 153.808 368.99 153.275C367.724 152.725 366.357 152.45 364.89 152.45C363.39 152.45 362.015 152.792 360.765 153.475C359.532 154.142 358.457 155.108 357.54 156.375C356.624 157.642 355.915 159.167 355.415 160.95C354.915 162.733 354.665 164.75 354.665 167C354.665 170.45 355.182 173.367 356.215 175.75C357.265 178.133 358.69 179.933 360.49 181.15C362.307 182.367 364.382 182.975 366.715 182.975C368.982 182.975 370.94 182.408 372.59 181.275C374.24 180.125 375.482 178.517 376.315 176.45C376.465 176.133 376.632 175.917 376.815 175.8C377.015 175.683 377.224 175.65 377.44 175.7C377.657 175.717 377.815 175.8 377.915 175.95C378.015 176.1 378.065 176.3 378.065 176.55ZM394.112 162.125C396.595 162.125 398.787 162.65 400.687 163.7C402.587 164.733 404.07 166.175 405.137 168.025C406.203 169.858 406.737 171.992 406.737 174.425C406.737 176.758 406.187 178.842 405.087 180.675C403.987 182.508 402.47 183.958 400.537 185.025C398.603 186.075 396.37 186.6 393.837 186.6C391.353 186.6 389.162 186.083 387.262 185.05C385.378 184 383.903 182.558 382.837 180.725C381.77 178.875 381.237 176.75 381.237 174.35C381.237 171.983 381.778 169.883 382.862 168.05C383.962 166.217 385.47 164.775 387.387 163.725C389.32 162.658 391.562 162.125 394.112 162.125ZM395.762 184.45C396.878 184.283 397.778 183.767 398.462 182.9C399.145 182.017 399.578 180.792 399.762 179.225C399.962 177.658 399.878 175.767 399.512 173.55C399.145 171.35 398.603 169.533 397.887 168.1C397.187 166.667 396.353 165.625 395.387 164.975C394.42 164.325 393.362 164.092 392.212 164.275C391.078 164.442 390.17 164.967 389.487 165.85C388.803 166.733 388.37 167.958 388.187 169.525C388.003 171.075 388.095 172.958 388.462 175.175C388.828 177.358 389.362 179.175 390.062 180.625C390.778 182.058 391.62 183.1 392.587 183.75C393.553 184.383 394.612 184.617 395.762 184.45ZM419.597 163.55V182.55C419.597 183 419.663 183.333 419.797 183.55C419.93 183.767 420.138 183.917 420.422 184L421.422 184.275C421.872 184.458 422.097 184.733 422.097 185.1C422.097 185.7 421.713 186 420.947 186H411.222C410.838 186 410.555 185.925 410.372 185.775C410.188 185.625 410.097 185.417 410.097 185.15C410.097 184.95 410.155 184.775 410.272 184.625C410.405 184.475 410.605 184.358 410.872 184.275L411.947 184C412.23 183.917 412.438 183.767 412.572 183.55C412.705 183.333 412.772 183 412.772 182.55V167.4C412.772 167.033 412.713 166.775 412.597 166.625C412.497 166.458 412.322 166.358 412.072 166.325L410.672 166.25C410.422 166.2 410.238 166.117 410.122 166C410.022 165.867 409.972 165.7 409.972 165.5C409.972 165.267 410.038 165.083 410.172 164.95C410.305 164.8 410.555 164.667 410.922 164.55L416.097 162.775C416.63 162.575 417.055 162.433 417.372 162.35C417.688 162.267 417.988 162.225 418.272 162.225C418.705 162.225 419.03 162.35 419.247 162.6C419.48 162.833 419.597 163.15 419.597 163.55ZM418.872 168.975L417.922 168L418.872 167.15C420.872 165.35 422.588 164.067 424.022 163.3C425.472 162.517 426.838 162.125 428.122 162.125C430.055 162.125 431.563 162.767 432.647 164.05C433.73 165.333 434.388 167.092 434.622 169.325L436.122 182.475C436.188 182.958 436.28 183.317 436.397 183.55C436.53 183.783 436.747 183.942 437.047 184.025L437.997 184.275C438.263 184.358 438.455 184.475 438.572 184.625C438.705 184.775 438.772 184.95 438.772 185.15C438.772 185.417 438.68 185.625 438.497 185.775C438.33 185.925 438.047 186 437.647 186H427.797C427.03 186 426.647 185.7 426.647 185.1C426.647 184.733 426.872 184.458 427.322 184.275L428.372 184C428.688 183.917 428.922 183.758 429.072 183.525C429.238 183.292 429.297 182.942 429.247 182.475L427.872 170.275C427.705 168.842 427.338 167.775 426.772 167.075C426.222 166.358 425.405 166 424.322 166C423.638 166 422.93 166.183 422.197 166.55C421.463 166.9 420.68 167.425 419.847 168.125L418.872 168.975ZM442.086 164.775L440.711 164.425C440.377 164.325 440.136 164.2 439.986 164.05C439.852 163.9 439.786 163.725 439.786 163.525C439.786 163.258 439.877 163.058 440.061 162.925C440.261 162.775 440.511 162.7 440.811 162.7H442.486C442.819 162.7 443.094 162.642 443.311 162.525C443.544 162.392 443.777 162.158 444.011 161.825L447.186 157.825C447.486 157.458 447.769 157.192 448.036 157.025C448.302 156.858 448.569 156.775 448.836 156.775C449.136 156.775 449.369 156.867 449.536 157.05C449.702 157.233 449.786 157.5 449.786 157.85V179.15C449.786 180.367 450.019 181.292 450.486 181.925C450.952 182.542 451.611 182.85 452.461 182.85C453.011 182.85 453.444 182.75 453.761 182.55C454.094 182.333 454.361 182.083 454.561 181.8C454.777 181.5 454.977 181.217 455.161 180.95C455.361 180.683 455.594 180.492 455.861 180.375C456.077 180.358 456.244 180.417 456.361 180.55C456.494 180.683 456.552 180.908 456.536 181.225C456.486 182.208 456.169 183.1 455.586 183.9C455.002 184.7 454.202 185.333 453.186 185.8C452.186 186.267 451.027 186.5 449.711 186.5C447.611 186.5 445.969 185.983 444.786 184.95C443.619 183.917 443.036 182.342 443.036 180.225V166.05C443.036 165.683 442.961 165.408 442.811 165.225C442.677 165.042 442.436 164.892 442.086 164.775ZM447.211 164.75L447.261 162.7H455.336C455.669 162.7 455.927 162.767 456.111 162.9C456.294 163.017 456.386 163.208 456.386 163.475C456.386 163.825 456.202 164.125 455.836 164.375C455.469 164.625 454.886 164.75 454.086 164.75H447.211ZM474.017 183V182.55L473.567 182.525V167.35C473.567 166.167 473.275 165.258 472.692 164.625C472.125 163.975 471.325 163.65 470.292 163.65C469.275 163.65 468.5 163.875 467.967 164.325C467.45 164.758 467.192 165.283 467.192 165.9V168.075C467.192 169.042 466.867 169.8 466.217 170.35C465.567 170.9 464.667 171.175 463.517 171.175C462.567 171.175 461.833 170.942 461.317 170.475C460.817 169.992 460.567 169.333 460.567 168.5C460.567 167.483 460.975 166.492 461.792 165.525C462.625 164.542 463.85 163.733 465.467 163.1C467.083 162.467 469.075 162.15 471.442 162.15C474.442 162.15 476.675 162.758 478.142 163.975C479.608 165.192 480.342 166.858 480.342 168.975V181.975C480.342 182.458 480.433 182.825 480.617 183.075C480.817 183.308 481.083 183.425 481.417 183.425C481.783 183.425 482.058 183.342 482.242 183.175C482.442 182.992 482.6 182.783 482.717 182.55C482.783 182.45 482.858 182.367 482.942 182.3C483.025 182.233 483.125 182.2 483.242 182.2C483.425 182.2 483.55 182.267 483.617 182.4C483.7 182.517 483.742 182.675 483.742 182.875C483.742 183.392 483.558 183.933 483.192 184.5C482.825 185.067 482.267 185.558 481.517 185.975C480.767 186.375 479.825 186.575 478.692 186.575C477.225 186.575 476.075 186.258 475.242 185.625C474.425 184.975 474.017 184.1 474.017 183ZM459.467 180.85C459.467 178.833 460.358 177.2 462.142 175.95C463.925 174.7 466.475 174.075 469.792 174.075C470.858 174.075 471.8 174.175 472.617 174.375C473.45 174.558 474.183 174.8 474.817 175.1L474.342 176.4C473.758 176.15 473.175 175.95 472.592 175.8C472.008 175.633 471.367 175.55 470.667 175.55C469.317 175.55 468.258 175.917 467.492 176.65C466.742 177.383 466.367 178.408 466.367 179.725C466.367 181.025 466.692 182.017 467.342 182.7C468.008 183.383 468.867 183.725 469.917 183.725C470.767 183.725 471.592 183.533 472.392 183.15C473.192 182.75 473.858 182.2 474.392 181.5L474.892 182.65C474.008 183.9 472.825 184.867 471.342 185.55C469.858 186.233 468.275 186.575 466.592 186.575C464.475 186.575 462.758 186.05 461.442 185C460.125 183.933 459.467 182.55 459.467 180.85ZM508.046 168.8C508.046 169.733 507.729 170.517 507.096 171.15C506.462 171.767 505.621 172.075 504.571 172.075C503.537 172.075 502.737 171.783 502.171 171.2C501.621 170.617 501.346 169.833 501.346 168.85V167.85C501.346 166.733 501.012 165.842 500.346 165.175C499.696 164.492 498.796 164.15 497.646 164.15C496.612 164.15 495.687 164.475 494.871 165.125C494.054 165.775 493.412 166.7 492.946 167.9C492.479 169.1 492.246 170.542 492.246 172.225C492.246 174.342 492.596 176.125 493.296 177.575C493.996 179.025 494.946 180.125 496.146 180.875C497.362 181.625 498.746 182 500.296 182C501.746 182 503.004 181.7 504.071 181.1C505.137 180.5 505.954 179.633 506.521 178.5C506.754 178.217 506.937 178.025 507.071 177.925C507.221 177.825 507.379 177.783 507.546 177.8C507.762 177.8 507.912 177.9 507.996 178.1C508.096 178.283 508.146 178.508 508.146 178.775C508.012 180.242 507.496 181.567 506.596 182.75C505.696 183.933 504.496 184.867 502.996 185.55C501.512 186.233 499.804 186.575 497.871 186.575C495.587 186.575 493.554 186.1 491.771 185.15C489.987 184.2 488.587 182.85 487.571 181.1C486.554 179.333 486.046 177.25 486.046 174.85C486.046 172.433 486.554 170.267 487.571 168.35C488.604 166.433 490.054 164.917 491.921 163.8C493.787 162.683 495.971 162.125 498.471 162.125C500.454 162.125 502.162 162.425 503.596 163.025C505.029 163.625 506.129 164.433 506.896 165.45C507.662 166.467 508.046 167.583 508.046 168.8ZM512.593 164.775L511.218 164.425C510.885 164.325 510.643 164.2 510.493 164.05C510.36 163.9 510.293 163.725 510.293 163.525C510.293 163.258 510.385 163.058 510.568 162.925C510.768 162.775 511.018 162.7 511.318 162.7H512.993C513.327 162.7 513.602 162.642 513.818 162.525C514.052 162.392 514.285 162.158 514.518 161.825L517.693 157.825C517.993 157.458 518.277 157.192 518.543 157.025C518.81 156.858 519.077 156.775 519.343 156.775C519.643 156.775 519.877 156.867 520.043 157.05C520.21 157.233 520.293 157.5 520.293 157.85V179.15C520.293 180.367 520.527 181.292 520.993 181.925C521.46 182.542 522.118 182.85 522.968 182.85C523.518 182.85 523.952 182.75 524.268 182.55C524.602 182.333 524.868 182.083 525.068 181.8C525.285 181.5 525.485 181.217 525.668 180.95C525.868 180.683 526.102 180.492 526.368 180.375C526.585 180.358 526.752 180.417 526.868 180.55C527.002 180.683 527.06 180.908 527.043 181.225C526.993 182.208 526.677 183.1 526.093 183.9C525.51 184.7 524.71 185.333 523.693 185.8C522.693 186.267 521.535 186.5 520.218 186.5C518.118 186.5 516.477 185.983 515.293 184.95C514.127 183.917 513.543 182.342 513.543 180.225V166.05C513.543 165.683 513.468 165.408 513.318 165.225C513.185 165.042 512.943 164.892 512.593 164.775ZM517.718 164.75L517.768 162.7H525.843C526.177 162.7 526.435 162.767 526.618 162.9C526.802 163.017 526.893 163.208 526.893 163.475C526.893 163.825 526.71 164.125 526.343 164.375C525.977 164.625 525.393 164.75 524.593 164.75H517.718ZM567.653 171L566.753 156C566.703 155.233 566.512 154.642 566.178 154.225C565.845 153.792 565.312 153.483 564.578 153.3L563.278 153.025C562.845 152.925 562.545 152.792 562.378 152.625C562.228 152.442 562.153 152.217 562.153 151.95C562.153 151.667 562.253 151.442 562.453 151.275C562.67 151.092 562.962 151 563.328 151H572.403C572.787 151 573.078 151.092 573.278 151.275C573.495 151.442 573.603 151.667 573.603 151.95C573.603 152.233 573.512 152.458 573.328 152.625C573.145 152.792 572.853 152.925 572.453 153.025L571.253 153.3C570.42 153.517 569.845 153.858 569.528 154.325C569.212 154.792 569.078 155.392 569.128 156.125L570.053 170.925C570.103 171.775 570.153 172.617 570.203 173.45C570.253 174.283 570.287 175.15 570.303 176.05C570.337 178.1 569.887 179.942 568.953 181.575C568.02 183.192 566.587 184.475 564.653 185.425C562.737 186.358 560.287 186.825 557.303 186.825C554.153 186.825 551.528 186.383 549.428 185.5C547.328 184.617 545.753 183.383 544.703 181.8C543.67 180.2 543.162 178.333 543.178 176.2C543.178 175.8 543.195 175.283 543.228 174.65C543.262 174 543.303 173.283 543.353 172.5C543.403 171.717 543.453 170.883 543.503 170L544.403 154.7C544.42 154.283 544.312 153.967 544.078 153.75C543.862 153.533 543.487 153.375 542.953 153.275L541.528 153.025C540.762 152.858 540.378 152.5 540.378 151.95C540.378 151.667 540.478 151.442 540.678 151.275C540.895 151.092 541.195 151 541.578 151H554.753C555.137 151 555.428 151.092 555.628 151.275C555.845 151.442 555.953 151.667 555.953 151.95C555.953 152.233 555.862 152.458 555.678 152.625C555.512 152.792 555.22 152.925 554.803 153.025L553.328 153.275C552.878 153.358 552.545 153.508 552.328 153.725C552.128 153.925 552.012 154.242 551.978 154.675L551.103 169.95C551.037 171.133 550.987 172.217 550.953 173.2C550.937 174.167 550.92 175.017 550.903 175.75C550.87 178.717 551.57 180.9 553.003 182.3C554.453 183.7 556.445 184.4 558.978 184.4C560.828 184.4 562.42 184.067 563.753 183.4C565.087 182.733 566.112 181.775 566.828 180.525C567.545 179.275 567.887 177.792 567.853 176.075C567.853 174.925 567.828 173.958 567.778 173.175C567.745 172.392 567.703 171.667 567.653 171ZM586.978 184.7C588.128 184.7 589.019 184.408 589.653 183.825C590.303 183.242 590.628 182.508 590.628 181.625C590.628 181.042 590.494 180.517 590.228 180.05C589.961 179.583 589.478 179.158 588.778 178.775C588.078 178.375 587.069 178.008 585.753 177.675C583.319 177.125 581.428 176.458 580.078 175.675C578.728 174.875 577.786 173.958 577.253 172.925C576.719 171.892 576.453 170.742 576.453 169.475C576.453 167.208 577.253 165.417 578.853 164.1C580.453 162.783 582.719 162.125 585.653 162.125C586.753 162.125 587.653 162.217 588.353 162.4C589.053 162.583 589.611 162.775 590.028 162.975C590.461 163.158 590.828 163.25 591.128 163.25C591.444 163.25 591.719 163.158 591.953 162.975C592.203 162.775 592.444 162.583 592.678 162.4C592.928 162.2 593.203 162.1 593.503 162.1C593.719 162.1 593.911 162.175 594.078 162.325C594.244 162.458 594.386 162.708 594.503 163.075L596.078 168.575C596.228 169.058 596.27 169.458 596.203 169.775C596.153 170.075 595.969 170.283 595.653 170.4C595.353 170.517 595.086 170.525 594.853 170.425C594.619 170.308 594.394 170.092 594.178 169.775C593.394 168.342 592.569 167.208 591.703 166.375C590.836 165.525 589.928 164.917 588.978 164.55C588.044 164.183 587.061 164 586.028 164C584.644 164 583.594 164.3 582.878 164.9C582.178 165.483 581.828 166.267 581.828 167.25C581.828 167.867 581.978 168.425 582.278 168.925C582.578 169.408 583.136 169.858 583.953 170.275C584.786 170.675 585.978 171.067 587.528 171.45C589.611 171.917 591.261 172.525 592.478 173.275C593.711 174.008 594.594 174.892 595.128 175.925C595.678 176.942 595.953 178.125 595.953 179.475C595.953 180.892 595.586 182.133 594.853 183.2C594.136 184.267 593.136 185.1 591.853 185.7C590.569 186.3 589.094 186.6 587.428 186.6C586.378 186.6 585.519 186.483 584.853 186.25C584.186 186.033 583.644 185.817 583.228 185.6C582.811 185.383 582.428 185.275 582.078 185.275C581.778 185.275 581.494 185.383 581.228 185.6C580.961 185.8 580.703 186.008 580.453 186.225C580.203 186.458 579.936 186.575 579.653 186.575C579.453 186.575 579.269 186.492 579.103 186.325C578.953 186.175 578.844 185.908 578.778 185.525L577.778 180.45C577.678 179.883 577.661 179.467 577.728 179.2C577.794 178.917 577.961 178.717 578.228 178.6C578.528 178.483 578.794 178.5 579.028 178.65C579.261 178.8 579.494 179.058 579.728 179.425C580.828 181.325 581.994 182.683 583.228 183.5C584.461 184.3 585.711 184.7 586.978 184.7Z" fill="#242F65"/>
<defs>
<filter id="filter0_f_282_429" x="-144.078" y="-157" width="751.432" height="963" filterUnits="userSpaceOnUse" color-interpolation-filters="sRGB">
<feFlood flood-opacity="0" result="BackgroundImageFix"/>
<feBlend mode="normal" in="SourceGraphic" in2="BackgroundImageFix" result="shape"/>
<feGaussianBlur stdDeviation="100" result="effect1_foregroundBlur_282_429"/>
</filter>
<filter id="filter1_f_282_429" x="292.882" y="78" width="724.019" height="979" filterUnits="userSpaceOnUse" color-interpolation-filters="sRGB">
<feFlood flood-opacity="0" result="BackgroundImageFix"/>
<feBlend mode="normal" in="SourceGraphic" in2="BackgroundImageFix" result="shape"/>
<feGaussianBlur stdDeviation="100" result="effect1_foregroundBlur_282_429"/>
</filter>
</defs>
</svg>
